<svg width="17" height="13" viewBox="0 0 17 13" fill="none" xmlns="http://www.w3.org/2000/svg">
<path d="M16.2723 1.55758C15.6897 1.8087 15.0569 1.9895 14.404 2.05981C15.077 1.65803 15.5893 1.02522 15.8304 0.271868C15.2076 0.643519 14.5045 0.914725 13.7712 1.05535C13.1786 0.422537 12.3348 0.0307963 11.4007 0.0307963C9.60268 0.0307963 8.15625 1.48727 8.15625 3.27522C8.15625 3.52633 8.18638 3.77745 8.23661 4.01852C5.54464 3.87789 3.14397 2.59218 1.54688 0.62343C1.26562 1.10557 1.10491 1.65803 1.10491 2.26071C1.10491 3.38571 1.67746 4.38013 2.55134 4.96272C2.01897 4.94263 1.51674 4.79196 1.08482 4.55089C1.08482 4.56093 1.08482 4.58102 1.08482 4.59106C1.08482 6.16807 2.19978 7.47388 3.68638 7.77522C3.41518 7.84553 3.12388 7.88571 2.83259 7.88571C2.62165 7.88571 2.42076 7.86562 2.21987 7.83548C2.6317 9.1212 3.82701 10.0553 5.25335 10.0855C4.13839 10.9594 2.74219 11.4716 1.22545 11.4716C0.954241 11.4716 0.703125 11.4616 0.441964 11.4315C1.87835 12.3556 3.58594 12.8879 5.42411 12.8879C11.3906 12.8879 14.6551 7.94597 14.6551 3.65691C14.6551 3.51629 14.6551 3.37566 14.6451 3.23504C15.2779 2.77298 15.8304 2.20044 16.2723 1.55758Z" fill="#094BCA"/>
</svg>
