<svg width="48" height="57" viewBox="0 0 48 57" fill="none" xmlns="http://www.w3.org/2000/svg">
<path d="M47.4042 21.0534C47.4042 33.2674 39.5234 41.621 28.255 41.621C22.898 41.621 18.483 39.4135 16.8301 36.6551L16.9083 39.4917V56.9845H5.40523V11.7543C5.40523 11.1251 5.24883 10.9651 4.53788 10.9651H0.595703V1.35318H10.2112C14.6226 1.35318 15.7281 5.13539 16.0409 6.79189C17.7757 3.87702 22.3435 0.489381 28.8059 0.489381C39.918 0.485826 47.4042 8.75765 47.4042 21.0534ZM35.663 21.1316C35.663 14.5909 31.408 10.1013 26.0475 10.1013C21.6361 10.1013 16.6701 13.0162 16.6701 21.2134C16.6701 26.5703 19.6632 32.1654 25.8911 32.1654C30.4624 32.1619 35.663 28.8525 35.663 21.1316Z" fill="#017737"/>
</svg>
