<svg width="16" height="17" viewBox="0 0 16 17" fill="none" xmlns="http://www.w3.org/2000/svg">
<path d="M12.5357 0.745082H2.89286C1.29576 0.745082 0 2.04084 0 3.63794V13.2808C0 14.8779 1.29576 16.1737 2.89286 16.1737H8.23661V10.1971H6.22768V7.86673H8.23661V6.1491C8.23661 4.16026 9.46205 3.07544 11.24 3.07544C12.0837 3.07544 12.817 3.13571 13.0279 3.16584V5.24508L11.8025 5.25513C10.8281 5.25513 10.6473 5.70713 10.6473 6.38013V7.86673H12.9475L12.6462 10.1971H10.6473V16.1737H12.5357C14.1328 16.1737 15.4286 14.8779 15.4286 13.2808V3.63794C15.4286 2.04084 14.1328 0.745082 12.5357 0.745082Z" fill="#094BCA"/>
</svg>
