<svg width="24" height="15" viewBox="0 0 24 15" fill="none" xmlns="http://www.w3.org/2000/svg">
<path d="M14.4342 7.63013C14.4342 7.14798 14.3839 6.77633 14.3136 6.40468H7.36272V8.93593H11.5413C11.3705 10.0107 10.2757 12.11 7.36272 12.11C4.85156 12.11 2.80246 10.0308 2.80246 7.45937C2.80246 4.88794 4.85156 2.8087 7.36272 2.8087C8.79911 2.8087 9.75335 3.42142 10.2958 3.94374L12.2946 2.02522C11.0089 0.819859 9.35156 0.096644 7.36272 0.096644C3.29464 0.096644 0 3.39129 0 7.45937C0 11.5274 3.29464 14.8221 7.36272 14.8221C11.6116 14.8221 14.4342 11.8388 14.4342 7.63013ZM23.1429 6.40468H21.0435V4.30535H18.9342V6.40468H16.8348V8.51406H18.9342V10.6134H21.0435V8.51406H23.1429V6.40468Z" fill="#094BCA"/>
</svg>
