<svg width="56" height="36" viewBox="0 0 56 36" fill="none" xmlns="http://www.w3.org/2000/svg">
<path d="M28.081 27.8052C23.052 27.8052 18.3474 26.0208 14.454 23.2632C9.58723 19.6945 6.66716 14.1792 5.85603 9.31278C5.85603 8.98835 5.6938 8.50171 5.6938 8.3395C5.53157 6.87957 6.50493 5.41964 8.12719 5.41964C8.61387 5.41964 8.7761 5.41964 9.26278 5.41964C10.3984 10.4483 13.1562 14.017 15.9141 16.288C19.6453 19.37 24.0254 20.5055 27.9188 20.5055C38.3013 20.6678 48.5215 11.4216 55.0106 1.36429C54.5239 0.877651 53.875 0.553223 53.2261 0.553223H2.77373C1.47592 0.553223 0.340332 1.68872 0.340332 2.98643V33.3205C0.340332 34.6182 1.47592 35.7537 2.77373 35.7537H53.2261C54.5239 35.7537 55.6595 34.6182 55.6595 33.3205V6.87957C47.0615 21.9655 37.1657 27.8052 28.081 27.8052Z" fill="#00BAFF"/>
<path d="M27.9184 20.3431C24.025 20.1809 19.6449 19.2077 15.9137 16.1256C13.1558 13.8546 10.398 10.2859 9.26241 5.25725C8.77573 5.25725 8.45128 5.25725 8.12682 5.25725C6.50456 5.25725 5.36898 6.71718 5.69343 8.1771C5.69343 8.50153 5.85566 8.82596 5.85566 9.15039C6.66679 14.0168 9.58686 19.5321 14.4536 23.1008C18.1849 25.8584 22.8894 27.6428 28.0807 27.6428C37.3276 27.6428 47.0611 21.8031 55.6591 6.71718V2.66183C55.6591 2.17519 55.4969 1.52633 55.1724 1.2019C48.5212 11.2592 38.4631 20.5054 27.9184 20.3431Z" fill="white"/>
</svg>
